 <svg width="17" height="18" viewBox="0 0 17 18" fill="none" xmlns="http://www.w3.org/2000/svg">
    <path d="M8.26757 0.011607C8.25858 0.0205951 8.18368 0.0355753 8.0968 0.0445634C8.01291 0.0505555 7.91703 0.0715278 7.89007 0.086508C7.86011 0.101488 7.77622 0.137441 7.70132 0.167401C7.50658 0.248294 6.97628 0.625795 6.69465 0.883455C6.67667 0.898435 6.58979 0.973336 6.49991 1.04824C6.41302 1.12314 6.2812 1.23699 6.2063 1.3029C5.97261 1.50963 5.72393 1.71935 5.63705 1.78227C5.58911 1.81522 5.46028 1.92608 5.34643 2.02495C5.23258 2.12681 5.00488 2.32155 4.8401 2.45937C4.67532 2.59719 4.44463 2.78894 4.32778 2.8908C4.21093 2.98967 4.0102 3.15745 3.88137 3.26531C3.52185 3.56491 2.98555 4.02031 2.96758 4.04128C2.95859 4.05027 2.81778 4.16711 2.65299 4.29894C2.48821 4.43077 2.29347 4.59255 2.21857 4.65846C2.14067 4.72438 2.01484 4.83224 1.93394 4.89815C1.77815 5.02698 1.55345 5.21872 1.52948 5.24269C1.52049 5.25168 1.35271 5.39249 1.15497 5.55728C0.486856 6.11154 0.100367 6.56095 0.0314584 6.87254C-0.0104861 7.05829 -0.0104861 15.4951 0.0314584 15.7888C0.0883832 16.1932 0.208225 16.4419 0.46888 16.7055C0.729536 16.9662 0.975211 17.104 1.33474 17.1969C1.55944 17.2538 1.6673 17.2568 3.16232 17.2538C5.46328 17.2538 5.81981 17.2269 5.88572 17.0561C5.94265 16.9123 5.96661 16.1063 5.98759 13.8114C6.01155 11.07 6.00257 11.1898 6.18832 11.079C6.3561 10.9831 6.78453 10.9621 8.50726 10.9621C9.41805 10.9621 10.215 10.9711 10.2749 10.9831C10.5206 11.0221 10.6704 11.088 10.7034 11.1719C10.7573 11.3097 10.7813 12.1815 10.7992 14.4555C10.8202 16.7685 10.8262 17.0081 10.8891 17.092C10.9101 17.119 11 17.1639 11.0898 17.1909C11.4434 17.2928 15.1615 17.2628 15.5599 17.1549C16.1112 17.0051 16.5007 16.6456 16.7074 16.0944L16.7823 15.8966L16.7943 11.5404C16.8063 7.30397 16.8033 7.18113 16.7464 6.95942C16.6355 6.522 16.4378 6.26434 15.7277 5.65315C15.4371 5.40148 15.0206 5.05095 14.7989 4.86819C14.5772 4.68843 14.2477 4.40979 14.0679 4.254C13.8851 4.09821 13.5706 3.83455 13.3668 3.66977C13.1631 3.50499 12.8725 3.26231 12.7227 3.13048C12.5729 2.99866 12.3002 2.77096 12.1205 2.62116C11.9377 2.47435 11.5632 2.15677 11.2816 1.91709C10.6494 1.37481 9.77758 0.65276 9.55887 0.487977C9.35513 0.335179 9.05253 0.161409 8.8548 0.086508C8.70799 0.0295832 8.30053 -0.0243455 8.26757 0.011607Z" />
  </svg>