 <svg width="16" height="17" viewBox="0 0 16 17" fill="none" xmlns="http://www.w3.org/2000/svg">
    <path d="M1.2547 17.0093C1.61862 17.0093 1.91322 16.7234 1.91322 16.3594V11.5419C2.12983 11.4466 2.94431 11.1346 4.21801 11.1346C7.42393 11.1346 9.43412 12.703 12.4841 12.703C13.8357 12.703 14.3383 12.5557 14.9968 12.2611C15.5947 11.9924 15.9846 11.5419 15.9846 10.7448V1.95016C15.9846 1.48226 15.586 1.21366 15.0835 1.21366C14.6589 1.21366 13.8617 1.57757 12.3714 1.57757C9.32153 1.57757 7.31995 0.00927734 4.10537 0.00927734C2.75369 0.00927734 2.24247 0.156576 1.58396 0.451173C0.986101 0.719778 0.596191 1.17034 0.596191 1.95882V16.3594C0.596191 16.7147 0.899453 17.0093 1.2547 17.0093Z" />
  </svg>