<svg width="21" height="17" viewBox="0 0 21 17" fill="none" xmlns="http://www.w3.org/2000/svg">
    <path d="M15.9603 2.09741L16.1632 3.24688H7.03974C4.73269 3.24688 3.39704 4.57445 3.39704 6.8572V14.4906C3.39704 14.4958 3.39705 14.5009 3.3976 14.5057C2.28695 14.4266 1.62353 13.7287 1.39761 12.4184L0.061952 4.89824C-0.221371 3.25498 0.466695 2.2836 2.13424 1.98409L13.0219 0.0655962C14.6894 -0.22582 15.6689 0.454147 15.9603 2.09741Z" />
    <path d="M9.87254 10.8236C8.92542 10.8236 8.14831 10.0383 8.14831 9.09129C8.14831 8.15229 8.92542 7.35895 9.87254 7.35895C10.8197 7.35895 11.5968 8.15229 11.5968 9.09129C11.5968 10.0383 10.8197 10.8236 9.87254 10.8236ZM6.73984 15.8667C6.04368 15.8667 5.59847 15.4215 5.59847 14.7253V14.361L7.66265 12.5073C7.97026 12.232 8.28599 12.1026 8.60165 12.1026C8.95783 12.1026 9.29785 12.2402 9.59734 12.5154L10.9168 13.7054L14.1953 10.7831C14.5433 10.4836 14.8914 10.3541 15.3043 10.3541C15.7009 10.3541 16.0732 10.4998 16.397 10.7911L19.5459 13.7296V14.7334C19.5459 15.4296 19.0927 15.8667 18.4207 15.8667H6.73984ZM7.03935 17H18.097C19.7888 17 20.6387 16.1581 20.6387 14.4905V6.85707C20.6387 5.18952 19.7888 4.34766 18.097 4.34766H7.03935C5.34752 4.34766 4.49756 5.18952 4.49756 6.85707V14.4905C4.49756 16.1662 5.34752 17 7.03935 17Z" />
  </svg>