 <svg width="26.18" height="17" fill="none" xmlns="http://www.w3.org/2000/svg" viewBox="0 0 26.18 17">
    <path
      fill-rule="evenodd"
      clip-rule="evenodd"
      d="M13.2318 0C10.4352 0 9.3335 3.88136 9.3335 8.52542C9.3335 13.1525 10.4352 17 13.2318 17C14.9098 17 16.3504 16.0339 16.3504 15.2373C16.3504 15.0678 16.2826 14.8983 16.1301 14.7458C15.3335 14 15.0284 13.2373 15.0115 12.5763C15.0115 11.3051 16.1301 10.3559 17.164 10.3559C18.6047 10.3559 19.4521 11.4576 19.4521 12.8644C19.4521 14.2034 18.8589 15.339 18.2318 16.2203C18.2149 16.2542 18.1979 16.3051 18.1979 16.339C18.1979 16.4068 18.2488 16.4746 18.2996 16.4746C18.3335 16.4746 18.3843 16.4576 18.4352 16.4068L25.5877 9.62712C25.9437 9.32203 26.181 8.98305 26.181 8.47458C26.181 7.98305 25.9606 7.62712 25.5877 7.32203L18.4352 0.559322C18.3843 0.508475 18.3335 0.491525 18.2996 0.491525C18.2318 0.491525 18.1979 0.542373 18.1979 0.627119C18.1979 0.661017 18.2149 0.711864 18.2318 0.745763C18.8589 1.64407 19.4521 2.76271 19.4521 4.1017C19.4521 5.52542 18.6047 6.62712 17.181 6.62712C16.1471 6.62712 15.0284 5.67797 15.0284 4.40678C15.0284 3.74576 15.3504 2.98305 16.1471 2.23729C16.2996 2.08475 16.3674 1.9322 16.3674 1.74576C16.3504 0.949153 14.9098 0 13.2318 0Z"
      fill="#254F9B"></path>
    <path
      fill-rule="evenodd"
      clip-rule="evenodd"
      d="M7.74576 0.573168C7.79661 0.52232 7.83051 0.505371 7.88136 0.505371C7.94915 0.505371 8 0.556219 8 0.640964C8 0.691812 7.98305 0.72571 7.9322 0.776558C6.25424 2.8274 5.0339 5.21724 5.0339 8.52232C5.0339 11.8274 6.25424 14.1833 7.9322 16.2172C7.9661 16.2511 8 16.302 8 16.3528C8 16.4206 7.94915 16.4884 7.88136 16.4884C7.84746 16.4884 7.79661 16.4715 7.74576 16.4206L0.59322 9.64096C0.220339 9.33588 0 8.97995 0 8.48842C0 7.9969 0.220339 7.64096 0.59322 7.33588L7.74576 0.573168Z"
      fill="#C20016"></path>
  </svg>