<svg width="62" height="17" viewBox="0 0 62 17" fill="none" xmlns="http://www.w3.org/2000/svg">
    <path
      d="M6.45071 3.9407C6.56766 4.09234 6.63474 4.27499 6.63474 4.46969C6.63474 4.70231 6.5453 4.92114 6.38019 5.08484L5.86421 5.60176C5.77477 5.69136 5.61482 5.69136 5.52366 5.60176L4.84945 4.92631L5.19 4.58514L5.69394 5.09L6.03964 4.74367C6.1136 4.6713 6.15316 4.57308 6.15316 4.46969C6.15316 4.36631 6.1136 4.26809 6.03964 4.19572L5.52538 3.68052C5.37919 3.53406 5.12464 3.53406 4.98017 3.68052L3.90521 4.75745C3.77106 4.89013 3.69882 5.06588 3.69882 5.25198C3.69882 5.43807 3.77278 5.61555 3.90349 5.74823L5.0782 6.92509L4.73766 7.26627L3.56295 6.0894C3.33936 5.8654 3.21724 5.56902 3.21724 5.25198C3.21724 4.93493 3.33936 4.63856 3.56295 4.41455L4.6379 3.33762C4.8013 3.17393 5.01973 3.08261 5.25192 3.08261C5.48411 3.08261 5.70082 3.17393 5.86593 3.33762L6.4593 3.93209L6.45071 3.9407ZM10.0712 8.50344C10.1382 8.36387 10.2001 8.23292 10.2139 8.052C10.2363 7.75907 10.1623 7.37999 10.0849 6.97851C10.0488 6.7907 10.011 6.60116 9.98344 6.41334C9.92324 6.01703 9.78737 5.86195 9.71169 5.83438C9.69793 5.84644 9.67901 5.86539 9.66353 5.8809C9.53626 6.00841 9.29547 6.2462 8.82593 6.10318C8.49742 6.00152 8.31511 5.7758 8.16891 5.59487C8.0382 5.43118 7.97628 5.36398 7.89028 5.36053C7.67013 5.35536 7.52566 5.56213 7.34851 5.86023L7.31411 5.91709C7.21951 6.07562 7.20231 6.2686 7.18339 6.47365C7.17479 6.57703 7.16619 6.67869 7.14728 6.77174C7.10428 6.9923 7.18168 7.65052 7.26767 7.92966C7.35539 8.22258 7.23327 8.388 7.15244 8.49828C7.10944 8.55686 7.08536 8.5896 7.07504 8.64129C7.06472 8.68782 7.07676 8.7688 7.09052 8.85323C7.12492 9.08757 7.17308 9.40635 6.93401 9.77164C6.66398 10.1835 6.64506 10.2782 6.78265 10.5436C6.82737 10.6297 6.87725 10.7124 6.92713 10.7848C7.0028 10.6263 7.149 10.5108 7.36055 10.4402C7.81633 10.2903 8.22051 10.6039 8.38734 10.8141L8.4097 10.8468C8.67629 11.3259 9.0048 11.5792 9.27483 11.5326C9.43478 11.5033 9.56205 11.3655 9.58957 11.188C9.63085 10.9261 9.79081 10.7211 9.9456 10.5246C10.0763 10.3575 10.2001 10.2007 10.2345 10.0284C10.2775 9.81644 10.2001 9.6717 10.1038 9.49078C10.0436 9.37533 9.98172 9.25816 9.94904 9.11686C9.894 8.87219 9.98688 8.67575 10.0694 8.50344M16.6361 9.37705L15.5612 10.454C15.2223 10.7934 14.672 10.7934 14.3349 10.454L13.8206 9.93878C13.8206 9.93878 13.8206 9.93878 13.8206 9.93706L13.7432 9.85952L13.7518 9.8509C13.4904 9.50973 13.511 9.02037 13.8223 8.70849L14.3383 8.19157C14.3847 8.14504 14.4466 8.12092 14.5086 8.12092C14.5705 8.12092 14.6324 8.14504 14.6788 8.19157L15.3513 8.86702L15.0108 9.20819L14.5068 8.70332L14.1611 9.04967C14.0115 9.2013 14.0115 9.44598 14.1611 9.59761L14.6771 10.1145C14.8285 10.2662 15.0727 10.2644 15.2241 10.1145L16.299 9.0376C16.4314 8.90493 16.5037 8.72917 16.5037 8.54135C16.5037 8.35354 16.4314 8.17778 16.299 8.0451L15.4081 7.15254C15.1449 6.88719 14.6823 6.88719 14.4191 7.15254L10.809 10.7641L9.94732 11.5895L9.94388 11.5861C9.8166 11.8032 9.60849 11.9651 9.3591 12.0082C9.12519 12.0496 8.53182 12.0427 8.00036 11.1036C7.9522 11.0484 7.73549 10.8245 7.5119 10.8985C7.42074 10.9278 7.36743 10.9657 7.35367 11.0071C7.33819 11.0588 7.33303 11.2035 7.33131 11.2156L7.34335 11.2552L10.2173 14.1345C10.4409 14.3585 10.5631 14.6549 10.5631 14.9719C10.5631 15.289 10.4409 15.5853 10.2173 15.8093L9.36254 16.6657C8.91708 17.112 8.13796 17.112 7.69249 16.6657L6.61582 15.5871C6.27871 15.2476 6.27871 14.6962 6.61582 14.3585L7.20919 13.764L7.21607 13.7727C7.36743 13.6538 7.55146 13.5866 7.74581 13.5866C7.978 13.5866 8.19471 13.6762 8.3581 13.8416L8.87408 14.3585C8.96868 14.4533 8.96868 14.6049 8.87408 14.6997L8.20159 15.3751L7.86105 15.034L8.36498 14.5291L8.01756 14.1828C7.87137 14.0363 7.61682 14.0363 7.47062 14.1828L6.95464 14.698C6.80501 14.8496 6.80501 15.0943 6.95464 15.2459L8.0296 16.3228C8.29275 16.5882 8.75541 16.5882 9.01856 16.3228L9.87336 15.4664C10.0058 15.3338 10.078 15.158 10.078 14.9702C10.078 14.7824 10.0041 14.6066 9.87336 14.474L6.80329 11.3965C6.78781 11.381 6.77233 11.3655 6.75685 11.3483C6.54186 11.1208 6.36815 10.7883 6.35611 10.7641C6.0878 10.2489 6.24431 9.94567 6.53154 9.50628C6.67086 9.29434 6.64506 9.12376 6.6141 8.92388C6.5969 8.80154 6.57798 8.67403 6.60378 8.54308C6.63646 8.38628 6.71041 8.28462 6.76545 8.21052C6.82565 8.12954 6.82565 8.12953 6.80673 8.0675C6.71041 7.75218 6.61066 7.01297 6.67602 6.68042C6.6915 6.60288 6.69837 6.51845 6.70525 6.43057C6.70525 6.41678 6.70698 6.40128 6.7087 6.38749L2.90765 10.2041C2.44671 10.6659 1.69854 10.6642 1.2376 10.2041L0.346682 9.31157C0.123092 9.08757 0.000976562 8.7912 0.000976562 8.47415C0.000976562 8.15883 0.123092 7.86073 0.346682 7.63673L1.42164 6.5598C1.76046 6.22035 2.31084 6.22035 2.64795 6.5598L3.16392 7.07673L3.16564 7.07845L3.24132 7.15427L3.23272 7.16288C3.49415 7.50405 3.47351 7.99341 3.1622 8.30529L2.64623 8.82222C2.55163 8.91699 2.40028 8.91526 2.30568 8.82222L1.63147 8.14849L1.97201 7.80732L2.47595 8.31218L2.82338 7.96584C2.97301 7.81593 2.97301 7.56953 2.82338 7.41963L2.3074 6.9027C2.16121 6.75624 1.90666 6.75624 1.76046 6.9027L0.685508 7.97963C0.553073 8.11231 0.480837 8.28806 0.480837 8.47587C0.480837 8.66369 0.553073 8.83945 0.685508 8.97212L1.57643 9.86469C1.84818 10.1387 2.29364 10.1387 2.56539 9.86469L6.24603 6.179L7.33131 5.07967L7.33991 5.08656C7.48094 4.96594 7.65294 4.87807 7.87481 4.87807C7.88685 4.87807 7.9006 4.87807 7.91264 4.87807C8.22395 4.89185 8.40282 5.11241 8.54386 5.29161C8.66425 5.44152 8.77949 5.58281 8.96696 5.63967C9.16475 5.69998 9.22151 5.64139 9.32643 5.53801C9.3419 5.5225 9.3591 5.50527 9.37802 5.48976L6.77061 2.87584C6.31139 2.41405 6.31139 1.6645 6.77061 1.20272L7.62542 0.34634C7.84901 0.122338 8.14483 0 8.4613 0C8.77605 0 9.07359 0.122338 9.29719 0.34634L10.3721 1.42327C10.711 1.76272 10.711 2.31411 10.3721 2.65183L10.1142 2.9103L9.85616 3.16876C9.85616 3.16876 9.85616 3.16876 9.85444 3.16876L9.77705 3.2463L9.77017 3.23941C9.42962 3.50132 8.94116 3.48064 8.62985 3.16876L8.11388 2.65183C8.021 2.55706 8.021 2.40543 8.11388 2.31066L8.78637 1.63521L9.12691 1.97638L8.62297 2.48125L8.96868 2.82759C9.12003 2.97922 9.36426 2.9775 9.5139 2.82931L10.0299 2.31239C10.1812 2.16248 10.1812 1.91608 10.0299 1.76444L8.95492 0.687514C8.69005 0.422158 8.22911 0.422158 7.96596 0.687514L7.11116 1.54389C6.83941 1.81786 6.83941 2.26242 7.11116 2.53639L10.0574 5.48632C10.2363 5.63106 10.3945 5.89986 10.4599 6.33924C10.4874 6.52017 10.5235 6.70282 10.5579 6.88374C10.6422 7.31796 10.7213 7.72806 10.6955 8.08473C10.6748 8.35526 10.582 8.55169 10.5063 8.70849C10.4392 8.85151 10.4031 8.92905 10.422 9.00659C10.4392 9.08413 10.4822 9.16684 10.5338 9.26161C10.6456 9.47355 10.7849 9.7389 10.711 10.118C10.7041 10.149 10.692 10.1766 10.6834 10.2059L14.0734 6.81137C14.297 6.58737 14.5928 6.46503 14.9093 6.46503C15.2258 6.46503 15.5216 6.58737 15.7452 6.81137L16.6361 7.70393C16.8597 7.92794 16.9818 8.2243 16.9818 8.54135C16.9818 8.8584 16.8597 9.15478 16.6361 9.37878M13.0931 6.41679C13.0931 6.41679 13.0931 6.41679 13.0913 6.41679L13.0139 6.49432L13.0053 6.48571C12.6648 6.74762 12.1763 6.72694 11.865 6.41506L11.3491 5.89813C11.2545 5.80336 11.2545 5.65174 11.3491 5.55697L12.0233 4.88324L12.3638 5.22441L11.8599 5.72927L12.2056 6.07561C12.3569 6.22724 12.6012 6.22552 12.7508 6.07561L12.9692 5.85678L13.2651 5.56041C13.4147 5.40878 13.4147 5.1641 13.2651 5.01247L12.1901 3.93554C11.927 3.67018 11.4643 3.67018 11.2011 3.93554L10.0712 5.0676L9.73233 4.72471L10.8623 3.59436C11.0859 3.37036 11.3817 3.24802 11.6982 3.24802C12.013 3.24802 12.3105 3.37036 12.5341 3.59436L13.609 4.6713C13.9479 5.01074 13.9479 5.56213 13.609 5.89986L13.0931 6.41679ZM10.5407 13.0645C10.4237 12.9146 10.3584 12.7302 10.3584 12.5372C10.3584 12.3046 10.4478 12.0857 10.6129 11.9221L11.1289 11.4051C11.1736 11.3603 11.2355 11.3345 11.2992 11.3345C11.3628 11.3345 11.4247 11.3603 11.4695 11.4051L12.1437 12.0806L11.8031 12.4218L11.2992 11.9169L10.9535 12.2632C10.8795 12.3356 10.84 12.4338 10.84 12.5372C10.84 12.6406 10.8795 12.7371 10.9535 12.8112L11.4677 13.3264C11.6139 13.4728 11.8685 13.4728 12.013 13.3264L13.0879 12.2494C13.3614 11.9755 13.3614 11.5309 13.0879 11.2569L11.951 10.1197L12.2916 9.77853L13.4285 10.9175C13.8877 11.3776 13.8877 12.1288 13.4285 12.5906L12.3535 13.6675C12.0267 13.9967 11.454 13.9967 11.1272 13.6675L10.5338 13.0731L10.5407 13.0645ZM3.62142 10.8468L3.87941 10.5884C3.87941 10.5884 3.87941 10.5884 3.88113 10.5884L3.95853 10.5108L3.96713 10.5195C4.12192 10.3988 4.30768 10.3351 4.49515 10.3351C4.71702 10.3351 4.93889 10.4195 5.10916 10.5884L5.62514 11.1053C5.71974 11.2001 5.71974 11.3517 5.62514 11.4465L4.95265 12.1202L4.6121 11.779L5.11604 11.2742L4.76518 10.9296C4.61554 10.7796 4.36959 10.7796 4.21996 10.9278L3.70398 11.4448C3.55435 11.5964 3.55435 11.8411 3.70398 11.991L4.77894 13.0679C5.0438 13.3333 5.50475 13.3315 5.76789 13.0679L6.89789 11.9358L7.23843 12.277L6.10844 13.4074C5.66298 13.8536 4.88385 13.8554 4.43839 13.4074L3.36343 12.3304C3.02633 11.991 3.02633 11.4396 3.36343 11.1019L3.62142 10.8468Z"
      fill="#AD7C40"
    />
    <path
      d="M25.9383 8.61193C25.9383 7.17067 25.2301 6.75625 24.38 6.75625C23.4211 6.75625 22.876 7.4548 22.876 8.57954C22.876 9.72563 23.4755 10.5118 24.4674 10.5118C25.2301 10.5118 25.9383 10.0532 25.9383 8.61193ZM24.2169 5.83909C25.5893 5.83909 25.9817 6.70178 25.9817 6.70178H26.0037V6.52659C26.0037 6.19903 26.1779 5.97011 26.6143 5.97011H28.8134V6.87623H27.2028C27.061 6.87623 26.9626 6.95279 26.9626 7.09412V11.2648C26.9626 13.0881 25.5791 13.7866 24.1838 13.7866C23.5189 13.7866 22.8436 13.6011 22.2985 13.328L22.6585 12.4764C22.6585 12.4764 23.3337 12.8481 24.1617 12.8481C25.1213 12.8481 25.906 12.4219 25.906 11.3082V10.9372C25.906 10.7628 25.9273 10.5883 25.9273 10.5883H25.906C25.5791 11.1227 25.0662 11.4289 24.2602 11.4289C22.7349 11.4289 21.7974 10.1953 21.7974 8.60089C21.7974 7.0183 22.6798 5.83909 24.2169 5.83909Z"
      fill="#6A5E50"
    />
    <path
      d="M28.5661 7.11622C28.5661 6.95281 28.4787 6.87625 28.3266 6.87625H27.8799V5.97013H28.9151C29.4162 5.97013 29.6234 6.17771 29.6234 6.64659V9.26706C29.6234 10.0311 29.7755 10.6428 30.6476 10.6428C31.7806 10.6428 32.4455 9.64909 32.4455 8.55748V5.97013H33.5028V10.3476C33.5028 10.5118 33.5903 10.5883 33.7423 10.5883H34.1891V11.4945H33.1759C32.7071 11.4945 32.4786 11.2758 32.4786 10.8828V10.6752C32.4786 10.5007 32.4896 10.3587 32.4896 10.3587H32.4676C32.2383 10.9049 31.5301 11.6255 30.4404 11.6255C29.198 11.6255 28.5661 10.9704 28.5661 9.50703V7.11622Z"
      fill="#6A5E50"
    />
    <path
      d="M35.052 9.94378C35.052 9.94378 35.7059 10.7623 36.7191 10.7623C37.2312 10.7623 37.6787 10.5334 37.6787 10.0527C37.6787 9.05974 34.6707 9.16868 34.6707 7.38882C34.6707 6.33032 35.5972 5.83862 36.7191 5.83862C37.3841 5.83862 38.528 6.06828 38.528 6.90889V7.43298H37.5802V7.1599C37.5802 6.83234 37.0902 6.69027 36.7522 6.69027C36.1306 6.69027 35.728 6.90889 35.728 7.34539C35.728 8.39358 38.7352 8.16392 38.7352 10.0093C38.7352 10.992 37.8638 11.625 36.7081 11.625C35.2372 11.625 34.5068 10.6534 34.5068 10.6534L35.052 9.94378Z"
      fill="#6A5E50"
    />
    <path
      d="M39.9136 6.82149H39.1943V5.96983H39.9357V4.45202H40.9709V5.96983H42.289V6.82149H40.9709V9.35436C40.9709 10.457 41.7336 10.5991 42.137 10.5991C42.289 10.5991 42.3875 10.577 42.3875 10.577V11.5163C42.3875 11.5163 42.2457 11.5376 42.0165 11.5376C41.3192 11.5376 39.9136 11.3197 39.9136 9.47435V6.82149Z"
      fill="#6A5E50"
    />
    <path
      d="M43.5437 7.11638C43.5437 6.95297 43.4562 6.87642 43.3041 6.87642H42.8574V5.97029H43.8927C44.3827 5.97029 44.5899 6.17787 44.5899 6.66884V10.3478C44.5899 10.512 44.6766 10.5885 44.8295 10.5885H45.2762V11.4946H44.2409C43.7509 11.4946 43.5437 11.2871 43.5437 10.7953V7.11638Z"
      fill="#6A5E50"
    />
    <path
      d="M59.8938 7.11638C59.8938 6.95297 59.8063 6.87642 59.6542 6.87642H59.2075V5.97029H60.2428C60.7328 5.97029 60.94 6.17787 60.94 6.66884V10.3478C60.94 10.512 61.0275 10.5885 61.1796 10.5885H61.6263V11.4946H60.591C60.101 11.4946 59.8938 11.2871 59.8938 10.7953V7.11638Z"
      fill="#6A5E50"
    />
    <path
      d="M46.2688 7.11638C46.2688 6.95297 46.1813 6.87642 46.0292 6.87642H45.5825V5.97029H46.5847C47.0645 5.97029 47.293 6.16683 47.293 6.61437V6.96328C47.293 7.18189 47.2717 7.34531 47.2717 7.34531H47.293C47.5546 6.53782 48.1864 5.90478 49.0365 5.90478C49.1783 5.90478 49.3201 5.92613 49.3201 5.92613V6.97432C49.3201 6.97432 49.1783 6.94193 49.0042 6.94193C48.3282 6.94193 47.7074 7.42186 47.4568 8.24112C47.3584 8.55764 47.326 8.89624 47.326 9.23411V11.4946H46.2688V7.11638Z"
      fill="#6A5E50"
    />
    <path
      d="M51.512 10.7733C52.4054 10.7733 52.9829 9.83484 52.9829 9.01557V8.83008H52.7104C51.9154 8.83008 50.4768 8.87351 50.4768 9.88931C50.4768 10.3368 50.8147 10.7733 51.512 10.7733ZM52.7324 8.05498H52.9727V8.00051C52.9727 7.02887 52.6126 6.67923 51.7515 6.67923C51.49 6.67923 50.8471 6.74474 50.8471 7.10542V7.42194H49.8559V6.87577C49.8559 5.96964 51.2284 5.83862 51.7625 5.83862C53.5502 5.83862 54.0292 6.77787 54.0292 8.00051V10.3479C54.0292 10.5113 54.1166 10.5879 54.2687 10.5879H54.7154V11.494H53.7243C53.2335 11.494 53.0373 11.254 53.0373 10.8609C53.0373 10.6754 53.0594 10.5334 53.0594 10.5334H53.0373C53.0373 10.5334 52.6016 11.625 51.2835 11.625C50.3349 11.625 49.4092 11.0464 49.4092 9.94378C49.4092 8.16392 51.8059 8.05498 52.7324 8.05498Z"
      fill="#6A5E50"
    />
    <path
      d="M55.6433 7.11638C55.6433 6.95297 55.5558 6.87642 55.4038 6.87642H54.957V5.97029H55.9592C56.439 5.97029 56.6675 6.16683 56.6675 6.61437V6.96328C56.6675 7.18189 56.6462 7.34531 56.6462 7.34531H56.6675C56.9291 6.53782 57.5609 5.90478 58.411 5.90478C58.5528 5.90478 58.6946 5.92613 58.6946 5.92613V6.97432C58.6946 6.97432 58.5528 6.94193 58.3787 6.94193C57.7027 6.94193 57.0819 7.42186 56.8313 8.24112C56.7329 8.55764 56.7006 8.89624 56.7006 9.23411V11.4946H55.6433V7.11638Z"
      fill="#6A5E50"
    />
    <path
      d="M60.3118 3.55766L59.5337 4.33718L60.3125 5.11816L61.0913 4.33865L60.3118 3.55766ZM43.1836 4.33718L43.9631 5.11816L44.7412 4.33865L43.9617 3.55766L43.1836 4.33718Z"
      fill="#AD7C40"
    />
    <path
      d="M29.1509 13.7788C28.8254 13.7788 28.6277 13.5992 28.6108 13.3298H28.8217C28.8305 13.5013 28.94 13.6132 29.1472 13.6132C29.3184 13.6132 29.4462 13.5315 29.4462 13.3924C29.4462 13.279 29.3728 13.2223 29.217 13.1885L29.0208 13.1509C28.8305 13.1134 28.6579 13.017 28.6579 12.7866C28.6579 12.5584 28.857 12.3869 29.1376 12.3869C29.4183 12.3869 29.6307 12.5584 29.6476 12.8285H29.4367C29.4257 12.6666 29.3088 12.5532 29.1399 12.5532C28.9642 12.5532 28.8687 12.657 28.8687 12.774C28.8687 12.9021 28.9797 12.947 29.1061 12.9735L29.3052 13.0133C29.5366 13.0604 29.6667 13.162 29.6667 13.3637C29.6667 13.5992 29.4778 13.7788 29.1509 13.7788Z"
      fill="#AD7C40"
    />
    <path
      d="M32.4075 13.2563H32.8667L32.6389 12.6321L32.4075 13.2563ZM32.9292 13.4241H32.345L32.2216 13.7598H32.0122L32.5302 12.4061H32.758L33.2715 13.7598H33.0519L32.9292 13.4241Z"
      fill="#AD7C40"
    />
    <path
      d="M35.9191 13.0774H36.2035C36.3952 13.0774 36.5047 12.9928 36.5047 12.8286C36.5047 12.6667 36.3952 12.5798 36.2035 12.5798H35.9191V13.0774ZM35.7119 13.7598V12.4068H36.2159C36.5267 12.4068 36.7134 12.5592 36.7134 12.8286C36.7134 13.0229 36.5907 13.1716 36.3849 13.2209L36.7523 13.7598H36.5047L36.1675 13.2511H35.9191V13.7598H35.7119Z"
      fill="#AD7C40"
    />
    <path
      d="M39.4118 13.5809H39.6227C39.9334 13.5809 40.101 13.388 40.101 13.0774C40.101 12.7719 39.9357 12.5857 39.6227 12.5857H39.4118V13.5809ZM39.2046 13.7598V12.4061H39.6322C40.0628 12.4061 40.3118 12.6814 40.3118 13.0774C40.3118 13.4675 40.0539 13.7598 39.6322 13.7598H39.2046Z"
      fill="#AD7C40"
    />
    <path d="M43.6377 13.7598H42.7817V12.4061H43.6245V12.5872H42.9889V12.9714H43.5686V13.1525H42.9889V13.5787H43.6377V13.7598Z" fill="#AD7C40" />
    <path
      d="M46.0547 13.081C46.0547 12.6813 46.3412 12.3773 46.7343 12.3773C47.0826 12.3773 47.3184 12.5907 47.4007 12.8719H47.1597C47.1083 12.6982 46.9599 12.5642 46.7292 12.5642C46.4617 12.5642 46.2692 12.7659 46.2692 13.0846C46.2692 13.385 46.4522 13.6109 46.7534 13.6109C47.004 13.6109 47.1619 13.4564 47.1987 13.2245H46.7328V13.0581H47.4176C47.4257 13.4924 47.1597 13.7876 46.7461 13.7876C46.3559 13.7876 46.0547 13.4924 46.0547 13.081Z"
      fill="#AD7C40"
    />
    <path
      d="M53.8311 13.2563H54.2903L54.0625 12.6321L53.8311 13.2563ZM54.3527 13.4241H53.7686L53.6452 13.7598H53.4365L53.9538 12.4061H54.1815L54.6951 13.7598H54.4747L54.3527 13.4241Z"
      fill="#AD7C40"
    />
    <path d="M50.079 12.702V13.7598H49.8872V12.4061H50.1128L50.8078 13.4359V12.4061H50.9996V13.7598H50.7902L50.079 12.702Z" fill="#AD7C40" />
  </svg>