 <svg width="63" height="17" viewBox="0 0 63 17" fill="none" xmlns="http://www.w3.org/2000/svg">
    <path d="M0 12.134V7.31556L4.07382 0.356188C4.19029 0.159625 4.44176 0.0932192 4.63765 0.210094L8.47059 2.49978V7.27041L0 12.134Z" fill="#DA3A52" />
    <path
      d="M16.9413 12.134V7.31556L12.8675 0.356188C12.751 0.159625 12.4995 0.0932192 12.3036 0.210094L8.4707 2.49978V7.27041L16.9413 12.134Z"
      fill="#F68936"
    />
    <path opacity="0.1" d="M4.29639 5.11084L8.4708 7.27037L6.32668 8.50021L4.29639 5.11084Z" fill="black" />
    <path opacity="0.1" d="M12.6451 5.11084L8.4707 7.27037L10.6148 8.50021L12.6451 5.11084Z" fill="black" />
    <path d="M0 12.1338V7.31534L3.98382 5.12128C4.15059 5.02831 4.36235 5.08675 4.45765 5.25409L8.47059 12.2214V17L0 12.1338Z" fill="#21AB6E" />
    <path d="M16.9413 12.1338V7.31534L12.9575 5.12128C12.7907 5.02831 12.5789 5.08675 12.4836 5.25409L8.4707 12.2214V17L16.9413 12.1338Z" fill="#95D8EF" />
    <path
      d="M24.8214 4.80002C25.6922 4.80002 26.354 5.00455 26.8067 5.41361C27.2593 5.82268 27.4949 6.39111 27.4949 7.11627C27.5108 7.58111 27.3917 8.03799 27.1508 8.43377C26.9019 8.8083 26.5419 9.09252 26.1211 9.24127L27.5611 11.855C27.5822 11.8896 27.5928 11.9294 27.5928 11.9719C27.5928 12.033 27.569 12.0914 27.524 12.1339C27.4817 12.1791 27.4234 12.203 27.3625 12.203H26.4731C26.3619 12.2136 26.2508 12.1764 26.1661 12.1021C26.1105 12.0489 26.0602 11.9852 26.0231 11.9161L24.6493 9.45111H23.2622V11.9161C23.2596 12.0728 23.1352 12.2003 22.9817 12.203H22.1346C21.9784 12.2003 21.854 12.0728 21.854 11.9161V5.08424C21.8567 4.92752 21.9811 4.80002 22.1346 4.79736H24.8214V4.80002ZM23.2622 8.13096H24.7764C25.1072 8.14689 25.4328 8.07518 25.7267 7.91846C25.9649 7.77768 26.0814 7.50939 26.0814 7.11627C26.0814 6.72314 25.9622 6.45752 25.7267 6.32205C25.4328 6.17596 25.1046 6.10689 24.7764 6.12018H23.2622V8.13096Z"
      fill="#333333"
    />
    <path
      d="M28.1326 9.45339C28.1273 9.07355 28.1855 8.69636 28.3046 8.33777C28.4158 8.00308 28.5905 7.69495 28.8208 7.42933C29.0458 7.17167 29.3211 6.96448 29.6308 6.82105C29.9643 6.66964 30.3243 6.59261 30.6896 6.59792C31.0549 6.59261 31.4149 6.66698 31.7484 6.81573C32.0528 6.95386 32.3281 7.15042 32.5584 7.39745C32.7834 7.64714 32.9581 7.93667 33.0746 8.25542C33.1964 8.5848 33.2599 8.93542 33.2573 9.28605V9.76417C33.2546 9.92089 33.1302 10.0484 32.974 10.0484H29.4878C29.4852 10.1971 29.5196 10.3459 29.5884 10.476C29.6546 10.5982 29.7446 10.7045 29.8558 10.7895C29.9723 10.8771 30.102 10.9409 30.2423 10.9807C30.3878 11.0232 30.5414 11.0445 30.6923 11.0445C30.8749 11.0498 31.0576 11.0259 31.2349 10.9781C31.3593 10.9409 31.4731 10.8825 31.579 10.8054C31.6373 10.7603 31.7008 10.7204 31.767 10.6885C31.8305 10.6646 31.8993 10.654 31.9655 10.6567H32.7993C32.8761 10.6567 32.9502 10.6859 33.0031 10.7417C33.0587 10.7921 33.0878 10.8665 33.0799 10.9409C33.0587 11.079 33.0031 11.2092 32.9184 11.3234C32.794 11.5014 32.6405 11.6554 32.4631 11.7776C32.2328 11.9396 31.984 12.0671 31.7167 12.1575C31.3858 12.269 31.0364 12.3221 30.687 12.3168C30.3243 12.3221 29.9617 12.2504 29.6281 12.1096C29.3184 11.9768 29.0405 11.7776 28.8181 11.5226C28.5878 11.2596 28.4131 10.9515 28.302 10.6168C28.1828 10.237 28.1246 9.84652 28.1326 9.45339ZM30.6923 7.86495C30.5176 7.85964 30.3402 7.89152 30.1761 7.95527C30.0411 8.00839 29.9193 8.08808 29.8161 8.18902C29.7208 8.27933 29.644 8.38558 29.5911 8.50511C29.5434 8.61136 29.509 8.72292 29.4905 8.8398H31.8517C31.8358 8.72558 31.8093 8.61402 31.7723 8.50511C31.7352 8.38558 31.669 8.27667 31.5843 8.1837C31.489 8.08277 31.3699 8.00308 31.2402 7.94995C31.0655 7.8862 30.8776 7.85698 30.6923 7.86495Z"
      fill="#333333"
    />
    <path
      d="M35.2346 9.08186C35.2081 9.32624 35.2081 9.57592 35.2346 9.8203C35.2478 10.0142 35.2981 10.2055 35.3802 10.3808C35.449 10.5242 35.5469 10.6544 35.6661 10.758C35.7799 10.8509 35.9096 10.9226 36.0472 10.9705C36.1849 11.0156 36.3305 11.0395 36.4761 11.0369C36.6243 11.0395 36.7725 11.0262 36.9155 10.9944C37.114 10.9519 37.294 10.8456 37.4316 10.6915C37.4952 10.6198 37.5508 10.5455 37.6037 10.4631C37.6487 10.3967 37.6964 10.333 37.7493 10.2719C37.7996 10.2134 37.8711 10.1789 37.9478 10.1789H38.7419C38.8187 10.1789 38.8928 10.2081 38.9458 10.2612C39.0014 10.3117 39.0305 10.3861 39.0225 10.4631C39.004 10.6517 38.9511 10.835 38.8664 11.0023C38.7552 11.2334 38.6016 11.438 38.4111 11.6106C38.1808 11.8231 37.9134 11.9878 37.6222 12.1047C37.2569 12.2481 36.8652 12.3145 36.4734 12.3065C36.1213 12.3119 35.7693 12.2455 35.4437 12.11C35.1472 11.9878 34.8772 11.8125 34.6443 11.5894C34.4193 11.3689 34.2393 11.1059 34.1122 10.8164C33.9825 10.5242 33.9031 10.2108 33.8766 9.89202C33.8634 9.75124 33.8555 9.61046 33.8555 9.46967C33.8555 9.32358 33.8608 9.18014 33.8766 9.03671C33.8978 8.7153 33.9746 8.39921 34.1069 8.10702C34.234 7.81749 34.4166 7.55186 34.639 7.32874C34.8693 7.1003 35.1393 6.91967 35.4358 6.79483C35.7666 6.65936 36.1187 6.59296 36.4761 6.59827C36.8678 6.58764 37.2596 6.65405 37.6249 6.79483C37.9161 6.90905 38.1834 7.07639 38.4137 7.28889C38.6043 7.45889 38.7578 7.66608 38.869 7.89717C38.9537 8.06452 39.0066 8.2478 39.0252 8.43639C39.0331 8.51342 39.004 8.5878 38.9484 8.63827C38.8928 8.69139 38.8213 8.72061 38.7446 8.72061H37.9505C37.8737 8.72061 37.7996 8.68608 37.7519 8.62764C37.699 8.56655 37.6514 8.5028 37.6064 8.43639C37.5561 8.35671 37.4978 8.27967 37.4343 8.20796C37.2993 8.05389 37.1193 7.9503 36.9181 7.90514C36.7725 7.87592 36.6269 7.85999 36.4787 7.86264C36.3331 7.86264 36.1902 7.88655 36.0499 7.92905C35.9122 7.97421 35.7825 8.04592 35.6687 8.14155C35.5469 8.2478 35.4464 8.38061 35.3802 8.52936C35.3008 8.70467 35.2505 8.89061 35.2346 9.08186Z"
      fill="#333333"
    />
    <path
      d="M42.4426 7.97134C42.027 7.97134 41.7253 8.0643 41.54 8.25024C41.3547 8.43618 41.262 8.74165 41.2647 9.16399V11.9132C41.2647 12.0699 41.1376 12.1974 40.9841 12.2001H40.19C40.1159 12.2001 40.0444 12.1709 39.9914 12.1151C39.9359 12.062 39.9067 11.9902 39.9067 11.9132V6.98852C39.9094 6.8318 40.0338 6.7043 40.1873 6.70165H40.9814C41.1376 6.7043 41.262 6.8318 41.262 6.98852V7.23024C41.4314 7.06821 41.6273 6.9354 41.8417 6.83977C42.0985 6.73884 42.3738 6.69102 42.6517 6.70165H43.1229C43.197 6.70165 43.2685 6.73352 43.3214 6.78665C43.377 6.83977 43.4062 6.91149 43.4062 6.98852V7.6818C43.4062 7.75884 43.377 7.83055 43.3214 7.88368C43.2712 7.93946 43.1997 7.96868 43.1229 7.96868L42.4426 7.97134Z"
      fill="#333333"
    />
    <path
      d="M46.3179 6.59555C46.67 6.59023 47.0194 6.64867 47.3476 6.7682C47.9432 6.98602 48.4303 7.43227 48.7029 8.00867C48.8406 8.29289 48.92 8.60102 48.9385 8.91711C48.9464 8.9968 48.9491 9.07914 48.9491 9.15883V9.74586C48.9491 9.82555 48.9464 9.90524 48.9385 9.98227C48.912 10.2984 48.8326 10.6065 48.6976 10.8907C48.5705 11.1696 48.3905 11.422 48.1682 11.6291C47.9326 11.8416 47.66 12.009 47.3635 12.1205C46.6911 12.3623 45.9579 12.3623 45.2855 12.1205C44.9891 12.009 44.7164 11.8443 44.4808 11.6291C44.2558 11.422 44.0732 11.1723 43.9435 10.8934C43.8085 10.6065 43.7291 10.2984 43.7026 9.98492C43.7026 9.92117 43.6894 9.84148 43.6867 9.74852C43.6841 9.65289 43.6867 9.55461 43.6867 9.45633C43.6867 9.35805 43.6867 9.25977 43.6867 9.15883C43.6867 9.05789 43.6947 8.98617 43.7026 8.91711C43.7185 8.60102 43.7953 8.29023 43.9303 8.00336C44.2029 7.42961 44.6873 6.98602 45.2776 6.76555C45.6138 6.65133 45.9658 6.59023 46.3179 6.59555ZM47.5805 8.9782C47.5673 8.78695 47.517 8.60102 47.4297 8.43367C47.3582 8.29555 47.2576 8.17867 47.1332 8.0857C47.0167 8.00336 46.887 7.94227 46.7467 7.91305C46.4635 7.8493 46.1697 7.8493 45.8891 7.91305C45.7488 7.94492 45.6191 8.00336 45.5026 8.0857C45.3782 8.17602 45.2776 8.29555 45.2061 8.43367C45.1188 8.60367 45.0658 8.78695 45.0553 8.9782C45.0553 9.03398 45.042 9.1057 45.0394 9.1907C45.0367 9.2757 45.0394 9.36336 45.0394 9.45367C45.0394 9.54398 45.0394 9.62633 45.0394 9.72195C45.0394 9.81758 45.0473 9.87867 45.0553 9.92914C45.0685 10.1204 45.1188 10.3063 45.2061 10.4737C45.2776 10.6118 45.3782 10.7287 45.5026 10.8216C45.6191 10.904 45.7488 10.9651 45.8891 10.9943C46.1723 11.058 46.4661 11.058 46.7467 10.9943C46.887 10.9624 47.0167 10.904 47.1332 10.8216C47.2576 10.7313 47.3608 10.6118 47.4297 10.4737C47.517 10.3037 47.57 10.1204 47.5805 9.92914C47.5885 9.86008 47.5911 9.79102 47.5911 9.72195V9.18805C47.5938 9.11898 47.5885 9.04727 47.5805 8.9782Z"
      fill="#333333"
    />
    <path
      d="M55.0295 9.98209L55.9692 6.95662C55.9904 6.89552 56.0221 6.83709 56.0592 6.78396C56.1095 6.72287 56.1836 6.69099 56.263 6.69896H57.0571C57.1312 6.69896 57.2054 6.72818 57.2557 6.78396C57.3086 6.83709 57.3404 6.9088 57.3404 6.98584C57.3404 7.00974 57.3377 7.0363 57.3298 7.05755L55.7521 11.9344C55.7309 11.9982 55.6992 12.0566 55.6595 12.1071C55.6065 12.1682 55.5298 12.2001 55.4504 12.1921H54.6562C54.5795 12.2001 54.5001 12.1682 54.4524 12.1071C54.4154 12.0513 54.3809 11.9955 54.3545 11.9344L53.338 9.11083L52.3242 11.9344C52.2977 11.9955 52.2633 12.054 52.2236 12.1071C52.1759 12.1682 52.0992 12.2001 52.0198 12.1921H51.2257C51.1462 12.2001 51.0695 12.1682 51.0165 12.1071C50.9742 12.054 50.9424 11.9955 50.9212 11.9344L49.3436 7.05755C49.3357 7.03365 49.333 7.00974 49.333 6.98584C49.333 6.82912 49.4601 6.70162 49.6136 6.69896H50.4077C50.4845 6.69099 50.5612 6.72287 50.6115 6.78396C50.6486 6.83709 50.6777 6.89552 50.6989 6.95662L51.6412 9.98209L52.6418 6.95662C52.6604 6.89021 52.6948 6.83177 52.7424 6.78396C52.7927 6.72818 52.8615 6.69896 52.9357 6.69896H53.7298C53.8039 6.69896 53.8727 6.72818 53.923 6.78396C53.9707 6.83177 54.0051 6.89287 54.0236 6.95662L55.0295 9.98209Z"
      fill="#333333"
    />
    <path
      d="M60.0668 6.59566C60.2626 6.59301 60.4559 6.61426 60.6465 6.65941C60.8026 6.6966 60.9535 6.74973 61.0965 6.81613C61.2129 6.87191 61.3241 6.94098 61.4247 7.02332C61.5041 7.08707 61.5756 7.15613 61.6444 7.23051V4.97535C61.6444 4.89832 61.6735 4.8266 61.7291 4.77348C61.7794 4.7177 61.8509 4.68848 61.9276 4.68848H62.7218C62.7959 4.68848 62.87 4.7177 62.9203 4.77348C62.9732 4.8266 63.0024 4.89832 63.0024 4.97535V11.9161C63.0024 12.0729 62.8753 12.2004 62.7218 12.203H61.9276C61.8535 12.203 61.7821 12.1738 61.7291 12.118C61.6735 12.0649 61.6444 11.9932 61.6444 11.9161V11.6744C61.5756 11.7488 61.5041 11.8179 61.4247 11.8816C61.3241 11.9639 61.2129 12.033 61.0965 12.0888C60.9535 12.1579 60.8026 12.211 60.6465 12.2455C60.4559 12.2907 60.2626 12.3119 60.0668 12.3093C59.7385 12.3146 59.4156 12.2429 59.1191 12.1021C58.8438 11.9693 58.6003 11.7833 58.3991 11.5522C58.1979 11.3185 58.0365 11.0502 57.9279 10.758C57.8141 10.4579 57.7479 10.1418 57.7347 9.82035C57.7268 9.7141 57.7241 9.59191 57.7241 9.45113C57.7241 9.31035 57.7268 9.18551 57.7347 9.08191C57.7479 8.76051 57.8115 8.44441 57.9279 8.14426C58.0365 7.85473 58.1979 7.58645 58.3991 7.35004C58.5976 7.11629 58.8438 6.9277 59.1191 6.79223C59.4156 6.65941 59.7385 6.59035 60.0668 6.59566ZM59.0927 9.15629C59.0715 9.35285 59.0715 9.55207 59.0927 9.74863C59.135 10.2108 59.2753 10.5402 59.5109 10.7368C59.7544 10.9386 60.0641 11.0449 60.3791 11.0369C60.6941 11.0449 60.9985 10.936 61.2368 10.7314C61.4803 10.5057 61.6259 10.1896 61.6391 9.85223C61.6656 9.58395 61.6656 9.31566 61.6391 9.04738C61.6206 8.71535 61.4776 8.40457 61.2368 8.17879C61.0012 7.96629 60.6941 7.85207 60.3791 7.86004C60.0641 7.85207 59.7544 7.95832 59.5109 8.16285C59.2806 8.36738 59.1403 8.69676 59.0927 9.15629Z"
      fill="#333333"
    />
  </svg>