<svg width="19" height="19" viewBox="0 0 19 19" fill="none" xmlns="http://www.w3.org/2000/svg">
    <path
      d="M9.15723 0.657715C13.8484 0.657715 17.6572 4.46656 17.6572 9.15772C17.6572 13.8489 13.8484 17.6577 9.15723 17.6577C4.46608 17.6577 0.657227 13.8489 0.657227 9.15772C0.657227 4.46656 4.46608 0.657715 9.15723 0.657715Z"
      fill="white"
    />
    <path
      d="M9.15789 0.76416C13.7907 0.76416 17.5521 4.52561 17.5521 9.15838C17.5521 13.7911 13.7907 17.5526 9.15789 17.5526C4.52512 17.5526 0.763672 13.7911 0.763672 9.15838C0.763672 4.52561 4.52512 0.76416 9.15789 0.76416Z"
      stroke="#FF453A"
      stroke-width="1.2375"
      stroke-linecap="round"
      stroke-linejoin="round"
    />
    <path
      d="M13.4982 6.38818C13.992 6.38818 14.3929 6.7891 14.3929 7.28289C14.3929 7.77668 13.992 8.1776 13.4982 8.1776C13.0044 8.1776 12.6035 7.77668 12.6035 7.28289C12.6035 6.7891 13.0044 6.38818 13.4982 6.38818Z"
      stroke="black"
      stroke-width="0.309459"
    />
    <path d="M13.1965 6.92188L13.1943 7.61618" stroke="black" stroke-width="0.303405" />
    <path d="M13.3945 7.00963L13.945 7.00732" stroke="black" stroke-width="0.3" />
    <path d="M13.6793 7.01025L13.6748 7.62618" stroke="black" stroke-width="0.297386" />
    <path
      d="M9.24269 6.39157C9.21472 6.3922 8.68513 6.24786 8.34491 6.91555C8.31174 6.98065 8.10828 7.30955 8.07485 7.38724C7.53606 8.31433 7.2488 8.86107 6.97602 9.27647C6.32213 8.1846 5.83945 7.27124 5.49158 6.70541C5.35839 6.4888 5.06796 6.39498 5.04546 6.38972C4.90433 6.35675 4.5903 6.31008 4.36625 6.43794C4.18675 6.54038 4.04032 6.67061 3.94766 6.90739C3.79233 7.30426 3.92206 7.69346 4.31793 8.21073C4.52439 8.6016 5.35858 10.055 5.52853 10.3344C6.21093 11.3167 6.12753 11.8913 6.98099 11.9611C7.70286 11.9005 7.78502 11.4409 8.04086 10.9892C8.34844 10.4461 8.62026 9.97307 9.14535 9.04299C9.723 10.0287 9.74153 10.0472 10.4616 11.3184C10.6104 11.501 10.7346 11.9619 11.4413 11.9632C12.1231 11.8635 12.3084 11.2333 12.2378 10.9329C12.1416 10.6032 11.598 9.78933 11.192 9.02199C10.85 8.48903 10.5941 7.98073 10.1043 7.1337C9.76933 6.33126 9.2809 6.39072 9.24269 6.39157Z"
      fill="black"
    />
  </svg>